<svg xmlns="http://www.w3.org/2000/svg" xmlns:xlink="http://www.w3.org/1999/xlink" version="1.1" x="0px" y="0px" viewBox="0 0 492 615" style="enable-background:new 0 0 492 492;" xml:space="preserve"><g><g><g><g><path style="" d="M103.879,261.738c-13.358,0-24.226-10.868-24.226-24.226      c0-15.226,2.987-30.008,8.879-43.938c5.686-13.442,13.82-25.51,24.177-35.867c10.356-10.356,22.424-18.491,35.866-24.177      c13.93-5.892,28.713-8.879,43.938-8.879h137.642l-20.877-20.877c-9.445-9.446-9.445-24.815,0-34.26      c4.576-4.576,10.659-7.096,17.13-7.096c6.471,0,12.554,2.52,17.13,7.096l62.232,62.233c6.953,6.953,9.014,17.316,5.251,26.401      c-3.763,9.085-12.548,14.955-22.382,14.955H192.513c-35.515,0-64.408,28.894-64.408,64.409      C128.105,250.87,117.237,261.738,103.879,261.738L103.879,261.738z M192.513,136.173c-13.675,0-26.948,2.681-39.45,7.969      c-12.069,5.105-22.906,12.41-32.208,21.712c-9.303,9.303-16.608,20.139-21.713,32.208c-5.288,12.502-7.969,25.775-7.969,39.45      c0,7.006,5.7,12.705,12.706,12.705c7.005,0,12.705-5.7,12.705-12.705c0-41.867,34.062-75.929,75.929-75.929l196.127,0      c5.157,0,9.765-3.079,11.738-7.843c1.974-4.765,0.893-10.2-2.754-13.846l-62.232-62.232c-2.4-2.4-5.591-3.722-8.984-3.722      c-3.394,0-6.584,1.322-8.984,3.722c-4.954,4.954-4.954,13.014,0,17.968l30.71,30.71c1.647,1.647,2.14,4.125,1.248,6.278      c-0.892,2.152-2.992,3.555-5.321,3.555L192.513,136.173L192.513,136.173z" fill-rule="evenodd" clip-rule="evenodd"/></g><g><path style="" d="M166.113,431.06c-6.204,0-12.407-2.361-17.13-7.084L86.75,361.742      c-6.953-6.953-9.015-17.316-5.251-26.4c3.763-9.085,12.548-14.955,22.382-14.955h196.127c35.515,0,64.408-28.894,64.408-64.409      c0-13.358,10.867-24.226,24.226-24.226c13.359,0,24.226,10.868,24.226,24.226c0,15.225-2.987,30.008-8.879,43.938      c-5.686,13.442-13.82,25.509-24.177,35.867c-10.357,10.357-22.425,18.491-35.866,24.176c-13.93,5.892-28.713,8.879-43.938,8.879      H162.366l20.877,20.877c9.445,9.446,9.445,24.815,0,34.26C178.52,428.698,172.316,431.06,166.113,431.06L166.113,431.06z       M103.88,331.907c-5.157,0-9.765,3.079-11.739,7.844c-1.973,4.765-0.893,10.199,2.754,13.846l62.232,62.233      c4.953,4.954,13.014,4.954,17.968,0c4.954-4.954,4.954-13.014,0-17.968l-30.71-30.71c-1.647-1.647-2.14-4.125-1.249-6.278      c0.892-2.152,2.992-3.556,5.322-3.556h151.548c13.675,0,26.948-2.681,39.45-7.969c12.069-5.105,22.905-12.409,32.208-21.712      c9.303-9.303,16.608-20.139,21.712-32.208c5.288-12.502,7.969-25.775,7.969-39.45c0-7.005-5.7-12.705-12.706-12.705      c-7.006,0-12.705,5.7-12.705,12.705c0,41.867-34.062,75.929-75.928,75.929H103.88z" fill-rule="evenodd" clip-rule="evenodd"/></g></g></g></g><text x="0" y="507" fill="#000000" font-size="5px" font-weight="bold" font-family="'Helvetica Neue', Helvetica, Arial-Unicode, Arial, Sans-serif">Created by Iconbunny</text><text x="0" y="512" fill="#000000" font-size="5px" font-weight="bold" font-family="'Helvetica Neue', Helvetica, Arial-Unicode, Arial, Sans-serif">from the Noun Project</text></svg>